<?xml version="1.0" encoding="UTF-8" ?>
<svg version="1.1" width="32" height="13" xmlns="http://www.w3.org/2000/svg" shape-rendering="crispEdges">
<rect x="1" y="1" width="1" height="1" fill="#FFFFFF" />
<rect x="2" y="1" width="1" height="1" fill="#FFFFFF" />
<rect x="3" y="1" width="1" height="1" fill="#FFFFFF" />
<rect x="4" y="1" width="1" height="1" fill="#FFFFFF" />
<rect x="5" y="1" width="1" height="1" fill="#FFFFFF" />
<rect x="6" y="1" width="1" height="1" fill="#FFFFFF" />
<rect x="9" y="1" width="1" height="1" fill="#FFFFFF" />
<rect x="10" y="1" width="1" height="1" fill="#FFFFFF" />
<rect x="13" y="1" width="1" height="1" fill="#FFFFFF" />
<rect x="14" y="1" width="1" height="1" fill="#FFFFFF" />
<rect x="17" y="1" width="1" height="1" fill="#FFFFFF" />
<rect x="18" y="1" width="1" height="1" fill="#FFFFFF" />
<rect x="25" y="1" width="1" height="1" fill="#FFFFFF" />
<rect x="26" y="1" width="1" height="1" fill="#FFFFFF" />
<rect x="27" y="1" width="1" height="1" fill="#FFFFFF" />
<rect x="28" y="1" width="1" height="1" fill="#FFFFFF" />
<rect x="29" y="1" width="1" height="1" fill="#FFFFFF" />
<rect x="30" y="1" width="1" height="1" fill="#FFFFFF" />
<rect x="1" y="2" width="1" height="1" fill="#FFFFFF" />
<rect x="2" y="2" width="1" height="1" fill="#FFFFFF" />
<rect x="3" y="2" width="1" height="1" fill="#FFFFFF" />
<rect x="4" y="2" width="1" height="1" fill="#FFFFFF" />
<rect x="5" y="2" width="1" height="1" fill="#FFFFFF" />
<rect x="6" y="2" width="1" height="1" fill="#FFFFFF" />
<rect x="9" y="2" width="1" height="1" fill="#FFFFFF" />
<rect x="10" y="2" width="1" height="1" fill="#FFFFFF" />
<rect x="13" y="2" width="1" height="1" fill="#FFFFFF" />
<rect x="14" y="2" width="1" height="1" fill="#FFFFFF" />
<rect x="17" y="2" width="1" height="1" fill="#FFFFFF" />
<rect x="18" y="2" width="1" height="1" fill="#FFFFFF" />
<rect x="25" y="2" width="1" height="1" fill="#FFFFFF" />
<rect x="26" y="2" width="1" height="1" fill="#FFFFFF" />
<rect x="27" y="2" width="1" height="1" fill="#FFFFFF" />
<rect x="28" y="2" width="1" height="1" fill="#FFFFFF" />
<rect x="29" y="2" width="1" height="1" fill="#FFFFFF" />
<rect x="30" y="2" width="1" height="1" fill="#FFFFFF" />
<rect x="1" y="3" width="1" height="1" fill="#FFFFFF" />
<rect x="2" y="3" width="1" height="1" fill="#FFFFFF" />
<rect x="3" y="3" width="1" height="1" fill="#9E9E9E" />
<rect x="4" y="3" width="1" height="1" fill="#9E9E9E" />
<rect x="5" y="3" width="1" height="1" fill="#FFFFFF" />
<rect x="6" y="3" width="1" height="1" fill="#FFFFFF" />
<rect x="9" y="3" width="1" height="1" fill="#FFFFFF" />
<rect x="10" y="3" width="1" height="1" fill="#FFFFFF" />
<rect x="13" y="3" width="1" height="1" fill="#FFFFFF" />
<rect x="14" y="3" width="1" height="1" fill="#FFFFFF" />
<rect x="17" y="3" width="1" height="1" fill="#FFFFFF" />
<rect x="18" y="3" width="1" height="1" fill="#FFFFFF" />
<rect x="25" y="3" width="1" height="1" fill="#FFFFFF" />
<rect x="26" y="3" width="1" height="1" fill="#FFFFFF" />
<rect x="27" y="3" width="1" height="1" fill="#9E9E9E" />
<rect x="28" y="3" width="1" height="1" fill="#9E9E9E" />
<rect x="29" y="3" width="1" height="1" fill="#9E9E9E" />
<rect x="30" y="3" width="1" height="1" fill="#9E9E9E" />
<rect x="1" y="4" width="1" height="1" fill="#FFFFFF" />
<rect x="2" y="4" width="1" height="1" fill="#FFFFFF" />
<rect x="5" y="4" width="1" height="1" fill="#FFFFFF" />
<rect x="6" y="4" width="1" height="1" fill="#FFFFFF" />
<rect x="9" y="4" width="1" height="1" fill="#FFFFFF" />
<rect x="10" y="4" width="1" height="1" fill="#FFFFFF" />
<rect x="13" y="4" width="1" height="1" fill="#FFFFFF" />
<rect x="14" y="4" width="1" height="1" fill="#FFFFFF" />
<rect x="17" y="4" width="1" height="1" fill="#FFFFFF" />
<rect x="18" y="4" width="1" height="1" fill="#FFFFFF" />
<rect x="25" y="4" width="1" height="1" fill="#FFFFFF" />
<rect x="26" y="4" width="1" height="1" fill="#FFFFFF" />
<rect x="1" y="5" width="1" height="1" fill="#FFFFFF" />
<rect x="2" y="5" width="1" height="1" fill="#FFFFFF" />
<rect x="3" y="5" width="1" height="1" fill="#FFFFFF" />
<rect x="4" y="5" width="1" height="1" fill="#FFFFFF" />
<rect x="5" y="5" width="1" height="1" fill="#FFFFFF" />
<rect x="6" y="5" width="1" height="1" fill="#FFFFFF" />
<rect x="9" y="5" width="1" height="1" fill="#9E9E9E" />
<rect x="10" y="5" width="1" height="1" fill="#9E9E9E" />
<rect x="11" y="5" width="1" height="1" fill="#FFFFFF" />
<rect x="12" y="5" width="1" height="1" fill="#FFFFFF" />
<rect x="13" y="5" width="1" height="1" fill="#9E9E9E" />
<rect x="14" y="5" width="1" height="1" fill="#9E9E9E" />
<rect x="17" y="5" width="1" height="1" fill="#FFFFFF" />
<rect x="18" y="5" width="1" height="1" fill="#FFFFFF" />
<rect x="25" y="5" width="1" height="1" fill="#FFFFFF" />
<rect x="26" y="5" width="1" height="1" fill="#FFFFFF" />
<rect x="27" y="5" width="1" height="1" fill="#FFFFFF" />
<rect x="28" y="5" width="1" height="1" fill="#FFFFFF" />
<rect x="29" y="5" width="1" height="1" fill="#FFFFFF" />
<rect x="30" y="5" width="1" height="1" fill="#FFFFFF" />
<rect x="1" y="6" width="1" height="1" fill="#FFFFFF" />
<rect x="2" y="6" width="1" height="1" fill="#FFFFFF" />
<rect x="3" y="6" width="1" height="1" fill="#FFFFFF" />
<rect x="4" y="6" width="1" height="1" fill="#FFFFFF" />
<rect x="5" y="6" width="1" height="1" fill="#FFFFFF" />
<rect x="6" y="6" width="1" height="1" fill="#FFFFFF" />
<rect x="11" y="6" width="1" height="1" fill="#FFFFFF" />
<rect x="12" y="6" width="1" height="1" fill="#FFFFFF" />
<rect x="17" y="6" width="1" height="1" fill="#FFFFFF" />
<rect x="18" y="6" width="1" height="1" fill="#FFFFFF" />
<rect x="25" y="6" width="1" height="1" fill="#FFFFFF" />
<rect x="26" y="6" width="1" height="1" fill="#FFFFFF" />
<rect x="27" y="6" width="1" height="1" fill="#FFFFFF" />
<rect x="28" y="6" width="1" height="1" fill="#FFFFFF" />
<rect x="29" y="6" width="1" height="1" fill="#FFFFFF" />
<rect x="30" y="6" width="1" height="1" fill="#FFFFFF" />
<rect x="1" y="7" width="1" height="1" fill="#FFFFFF" />
<rect x="2" y="7" width="1" height="1" fill="#FFFFFF" />
<rect x="3" y="7" width="1" height="1" fill="#9E9E9E" />
<rect x="4" y="7" width="1" height="1" fill="#9E9E9E" />
<rect x="5" y="7" width="1" height="1" fill="#9E9E9E" />
<rect x="6" y="7" width="1" height="1" fill="#9E9E9E" />
<rect x="9" y="7" width="1" height="1" fill="#FFFFFF" />
<rect x="10" y="7" width="1" height="1" fill="#FFFFFF" />
<rect x="11" y="7" width="1" height="1" fill="#9E9E9E" />
<rect x="12" y="7" width="1" height="1" fill="#9E9E9E" />
<rect x="13" y="7" width="1" height="1" fill="#FFFFFF" />
<rect x="14" y="7" width="1" height="1" fill="#FFFFFF" />
<rect x="17" y="7" width="1" height="1" fill="#FFFFFF" />
<rect x="18" y="7" width="1" height="1" fill="#FFFFFF" />
<rect x="25" y="7" width="1" height="1" fill="#9E9E9E" />
<rect x="26" y="7" width="1" height="1" fill="#9E9E9E" />
<rect x="27" y="7" width="1" height="1" fill="#9E9E9E" />
<rect x="28" y="7" width="1" height="1" fill="#9E9E9E" />
<rect x="29" y="7" width="1" height="1" fill="#FFFFFF" />
<rect x="30" y="7" width="1" height="1" fill="#FFFFFF" />
<rect x="1" y="8" width="1" height="1" fill="#FFFFFF" />
<rect x="2" y="8" width="1" height="1" fill="#FFFFFF" />
<rect x="9" y="8" width="1" height="1" fill="#FFFFFF" />
<rect x="10" y="8" width="1" height="1" fill="#FFFFFF" />
<rect x="13" y="8" width="1" height="1" fill="#FFFFFF" />
<rect x="14" y="8" width="1" height="1" fill="#FFFFFF" />
<rect x="17" y="8" width="1" height="1" fill="#FFFFFF" />
<rect x="18" y="8" width="1" height="1" fill="#FFFFFF" />
<rect x="29" y="8" width="1" height="1" fill="#FFFFFF" />
<rect x="30" y="8" width="1" height="1" fill="#FFFFFF" />
<rect x="1" y="9" width="1" height="1" fill="#FFFFFF" />
<rect x="2" y="9" width="1" height="1" fill="#FFFFFF" />
<rect x="9" y="9" width="1" height="1" fill="#FFFFFF" />
<rect x="10" y="9" width="1" height="1" fill="#FFFFFF" />
<rect x="13" y="9" width="1" height="1" fill="#FFFFFF" />
<rect x="14" y="9" width="1" height="1" fill="#FFFFFF" />
<rect x="17" y="9" width="1" height="1" fill="#FFFFFF" />
<rect x="18" y="9" width="1" height="1" fill="#FFFFFF" />
<rect x="19" y="9" width="1" height="1" fill="#FFFFFF" />
<rect x="20" y="9" width="1" height="1" fill="#FFFFFF" />
<rect x="21" y="9" width="1" height="1" fill="#FFFFFF" />
<rect x="22" y="9" width="1" height="1" fill="#FFFFFF" />
<rect x="25" y="9" width="1" height="1" fill="#FFFFFF" />
<rect x="26" y="9" width="1" height="1" fill="#FFFFFF" />
<rect x="27" y="9" width="1" height="1" fill="#FFFFFF" />
<rect x="28" y="9" width="1" height="1" fill="#FFFFFF" />
<rect x="29" y="9" width="1" height="1" fill="#FFFFFF" />
<rect x="30" y="9" width="1" height="1" fill="#FFFFFF" />
<rect x="1" y="10" width="1" height="1" fill="#FFFFFF" />
<rect x="2" y="10" width="1" height="1" fill="#FFFFFF" />
<rect x="9" y="10" width="1" height="1" fill="#FFFFFF" />
<rect x="10" y="10" width="1" height="1" fill="#FFFFFF" />
<rect x="13" y="10" width="1" height="1" fill="#FFFFFF" />
<rect x="14" y="10" width="1" height="1" fill="#FFFFFF" />
<rect x="17" y="10" width="1" height="1" fill="#FFFFFF" />
<rect x="18" y="10" width="1" height="1" fill="#FFFFFF" />
<rect x="19" y="10" width="1" height="1" fill="#FFFFFF" />
<rect x="20" y="10" width="1" height="1" fill="#FFFFFF" />
<rect x="21" y="10" width="1" height="1" fill="#FFFFFF" />
<rect x="22" y="10" width="1" height="1" fill="#FFFFFF" />
<rect x="25" y="10" width="1" height="1" fill="#FFFFFF" />
<rect x="26" y="10" width="1" height="1" fill="#FFFFFF" />
<rect x="27" y="10" width="1" height="1" fill="#FFFFFF" />
<rect x="28" y="10" width="1" height="1" fill="#FFFFFF" />
<rect x="29" y="10" width="1" height="1" fill="#FFFFFF" />
<rect x="30" y="10" width="1" height="1" fill="#FFFFFF" />
<rect x="1" y="11" width="1" height="1" fill="#9E9E9E" />
<rect x="2" y="11" width="1" height="1" fill="#9E9E9E" />
<rect x="9" y="11" width="1" height="1" fill="#9E9E9E" />
<rect x="10" y="11" width="1" height="1" fill="#9E9E9E" />
<rect x="13" y="11" width="1" height="1" fill="#9E9E9E" />
<rect x="14" y="11" width="1" height="1" fill="#9E9E9E" />
<rect x="17" y="11" width="1" height="1" fill="#9E9E9E" />
<rect x="18" y="11" width="1" height="1" fill="#9E9E9E" />
<rect x="19" y="11" width="1" height="1" fill="#9E9E9E" />
<rect x="20" y="11" width="1" height="1" fill="#9E9E9E" />
<rect x="21" y="11" width="1" height="1" fill="#9E9E9E" />
<rect x="22" y="11" width="1" height="1" fill="#9E9E9E" />
<rect x="25" y="11" width="1" height="1" fill="#9E9E9E" />
<rect x="26" y="11" width="1" height="1" fill="#9E9E9E" />
<rect x="27" y="11" width="1" height="1" fill="#9E9E9E" />
<rect x="28" y="11" width="1" height="1" fill="#9E9E9E" />
<rect x="29" y="11" width="1" height="1" fill="#9E9E9E" />
<rect x="30" y="11" width="1" height="1" fill="#9E9E9E" />
</svg>